<svg width="46" height="48" viewBox="0 0 46 48" fill="none" xmlns="http://www.w3.org/2000/svg">
<path fill-rule="evenodd" clip-rule="evenodd" d="M0.469705 6.1624C0.611477 3.0522 3.10427 0.559132 6.21462 0.420553C18.7691 -0.138801 27.5664 -0.139858 39.8449 0.415452C42.9549 0.556108 45.4447 3.05202 45.5796 6.16232C46.1544 19.4055 46.1271 28.619 45.5748 41.7113C45.4417 44.8666 42.8911 47.3859 39.7346 47.4842C27.5132 47.8649 18.7611 47.8829 6.27551 47.4875C3.13935 47.3881 0.599174 44.896 0.450564 41.7618C0.430415 41.3369 0.41096 40.9161 0.392196 40.4991L3.22285 39.842C4.14108 39.6288 4.79107 38.8106 4.79107 37.868V32.403C4.79107 31.4604 4.14108 30.6422 3.22285 30.429L0.0455943 29.6915C-0.0201388 25.8394 -0.0141565 22.1383 0.0593981 18.2853L3.22285 17.5509C4.14108 17.3378 4.79107 16.5196 4.79107 15.577V10.112C4.79107 9.16932 4.14108 8.35116 3.22285 8.138L0.410719 7.48518C0.429741 7.04857 0.449405 6.60775 0.469705 6.1624Z" fill="#8BA6CC"/>
<path d="M14.5284 30.4953C16.2363 29.3648 19.8845 28.3837 20.4282 28.0816C20.9718 27.7794 21.5137 27.5537 21.5137 26.576C21.5137 25.5967 20.9611 25.0774 20.1939 24.3881C18.7543 23.0996 19.0315 21.6375 18.0997 20.9585C17.3361 20.4046 16.9552 19.9774 16.8354 19.1474C16.8157 19.0241 16.8032 18.8834 16.7978 18.7271C16.796 18.6629 16.7817 18.6195 16.7817 18.5466C16.7817 17.265 17.8672 17.265 17.8672 17.265C17.8672 17.265 17.8672 17.3015 18.2553 15.1934C18.6291 13.1548 20.7465 10.9807 23.6865 10.8349V10.821C23.7456 10.821 23.7974 10.8262 23.8546 10.8279C23.9029 10.8262 23.9512 10.821 24.0013 10.821V10.8331C24.0156 10.8331 24.0281 10.8366 24.0424 10.8383C24.0567 10.8366 24.0692 10.8331 24.0836 10.8331V10.821C24.1336 10.821 24.1819 10.8262 24.2302 10.8279C24.2856 10.8262 24.3393 10.821 24.3983 10.821V10.8349C27.3401 10.9807 29.4558 13.1548 29.8295 15.1934C30.2176 17.3032 30.2176 17.265 30.2176 17.265C30.2176 17.265 31.3031 17.265 31.3031 18.5466C31.3031 18.6178 31.2888 18.6612 31.287 18.7271C31.2799 18.8834 31.2674 19.0241 31.2495 19.1474C31.1296 19.9774 30.7487 20.4046 29.9851 20.9585C29.0534 21.6375 29.3306 23.0996 27.8909 24.3881C27.122 25.0757 26.5711 25.5949 26.5711 26.576C26.5711 27.5537 27.1148 27.7794 27.6567 28.0816C28.1985 28.3837 31.8486 29.3631 33.5564 30.4953C35.2643 31.6274 35.1874 32.2283 35.1874 33.2059C35.1874 34.8642 35.1874 35.0917 33.0128 35.0917C30.8381 35.0917 23.8743 35.0917 23.8743 35.0917H24.0424C24.0424 35.0917 17.2467 35.1969 15.0721 35.0917C12.8974 34.9865 12.8974 34.8642 12.8974 33.2059C12.8974 32.2283 12.8205 31.6257 14.5284 30.4953Z" fill="white"/>
</svg>
