<svg width="42" height="46" viewBox="0 0 42 46" fill="none" xmlns="http://www.w3.org/2000/svg">
<path d="M3.07402 37.2167C6.29193 35.0783 13.1658 33.2224 14.1901 32.6508C15.2145 32.0793 16.2355 31.6523 16.2355 29.8029C16.2355 27.9503 15.1943 26.9682 13.7487 25.6641C11.0363 23.2268 11.5585 20.461 9.803 19.1766C8.3642 18.1288 7.64649 17.3207 7.42073 15.7506C7.38367 15.5174 7.36008 15.2513 7.34997 14.9557C7.3466 14.8341 7.31964 14.752 7.31964 14.614C7.31964 12.1899 9.36496 12.1899 9.36496 12.1899C9.36496 12.1899 9.36496 12.2588 10.0962 8.27111C10.8004 4.41476 14.7899 0.302201 20.3295 0.0262784V0C20.4407 0 20.5384 0.00985421 20.6462 0.013139C20.7372 0.00985421 20.8282 0 20.9225 0V0.0229935C20.9495 0.0229935 20.973 0.0295631 21 0.0328479C21.027 0.0295631 21.0505 0.0229935 21.0775 0.0229935V0C21.1719 0 21.2628 0.00985421 21.3538 0.013139C21.4583 0.00985421 21.5593 0 21.6705 0V0.0262784C27.2134 0.302201 31.1996 4.41476 31.9039 8.27111C32.635 12.2621 32.635 12.1899 32.635 12.1899C32.635 12.1899 34.6804 12.1899 34.6804 14.614C34.6804 14.7487 34.6534 14.8308 34.65 14.9557C34.6366 15.2513 34.613 15.5174 34.5793 15.7506C34.3535 17.3207 33.6358 18.1288 32.197 19.1766C30.4415 20.461 30.9638 23.2268 28.2513 25.6641C26.8024 26.9649 25.7645 27.947 25.7645 29.8029C25.7645 31.6523 26.7889 32.0793 27.8099 32.6508C28.8308 33.2224 35.7081 35.075 38.926 37.2167C42.1439 39.3584 41.999 40.4949 41.999 42.3443C41.999 45.4813 41.999 45.9116 37.9016 45.9116C33.8043 45.9116 20.6833 45.9116 20.6833 45.9116H21C21 45.9116 8.19573 46.1106 4.09836 45.9116C0.000991821 45.7126 0.000991821 45.4813 0.000991821 42.3443C0.000991821 40.4949 -0.143898 39.3551 3.07402 37.2167Z" fill="#8BA5CC"/>
</svg>
