<svg width="28" height="28" viewBox="0 0 28 28" fill="none" xmlns="http://www.w3.org/2000/svg">
<path d="M21.8721 18.6273C22.0635 18.6219 22.2549 18.6602 22.4381 18.7805C21.7736 18.3539 21.3361 17.6102 21.3361 16.7598V12.0156C21.3361 8.54023 18.8232 5.63906 15.4654 4.92539V4.75586C15.4654 3.86992 14.749 3.15625 13.8658 3.15625C12.9826 3.15625 12.2662 3.87266 12.2662 4.75586V4.92539C8.9084 5.63906 6.39551 8.5375 6.39551 12.0156V16.7598C6.39551 17.6102 5.95527 18.3539 5.29356 18.7805C5.47949 18.6602 5.66816 18.6191 5.85957 18.6273C5.27168 18.6301 4.7959 19.1031 4.7959 19.6938C4.7959 20.2844 5.27168 20.7602 5.8623 20.7602H21.8666C22.4572 20.7602 22.933 20.2844 22.933 19.6938C22.9357 19.1086 22.46 18.6301 21.8721 18.6273ZM13.8686 24.498C15.3424 24.498 16.5373 23.3031 16.5373 21.8293H11.1998C11.1998 23.3031 12.392 24.498 13.8686 24.498Z" fill="#7B7B7B"/>
</svg>
