<svg width="48" height="46" viewBox="0 0 48 46" fill="none" xmlns="http://www.w3.org/2000/svg">
<path d="M46.0974 13.4953C44.8817 10.8543 43.1437 8.48444 40.9312 6.45179C38.7276 4.42641 36.1619 2.83692 33.3071 1.72728C30.3582 0.581301 27.2266 0 24.0002 0C20.7738 0 17.6422 0.581301 14.6933 1.72728C11.8388 2.83692 9.2728 4.42779 7.06915 6.45179C4.85697 8.48444 3.11901 10.8543 1.90331 13.4953C0.647771 16.205 -0.00218258 19.1632 5.50636e-06 22.158C5.50636e-06 28.3733 2.80264 34.2531 7.72677 38.4462C6.15857 40.5322 4.70765 41.8914 1.34217 43.9421C1.1376 44.0667 0.978903 44.256 0.890387 44.481C0.80187 44.706 0.788415 44.9543 0.852083 45.1878C0.91575 45.4213 1.05303 45.6271 1.2429 45.7738C1.43276 45.9205 1.66475 46 1.90331 46C5.22482 46 8.27836 45.6645 10.9794 45.0025C13.2819 44.4386 15.3376 43.636 16.2871 43.1454C18.786 43.9252 21.386 44.3198 24.0002 44.316C27.2266 44.316 30.3582 43.7347 33.3071 42.5887C36.1615 41.4808 38.7276 39.8882 40.9309 37.8642C43.1434 35.8316 44.8814 33.4617 46.097 30.8207C47.3503 28.1102 48 25.1525 48 22.158C48 19.1635 47.3503 16.2058 46.097 13.4953H46.0974Z" fill="#178AFF"/>
</svg>
