<svg width="40" height="40" viewBox="0 0 40 40" fill="none" xmlns="http://www.w3.org/2000/svg">
<path d="M35.3125 36.6221C34.8633 36.6221 34.418 36.4502 34.0742 36.1104L29.6992 31.7354C29.0156 31.0518 29.0156 29.9463 29.6992 29.2627C30.3828 28.5791 31.4883 28.5791 32.1719 29.2627L36.5469 33.6377C37.2305 34.3213 37.2305 35.4268 36.5469 36.1104C36.207 36.4502 35.7617 36.6221 35.3125 36.6221Z" fill="#A3A4A8"/>
<path d="M19.5625 36.625C10.3945 36.625 2.9375 29.168 2.9375 20C2.9375 10.832 10.3945 3.375 19.5625 3.375C28.7305 3.375 36.1875 10.832 36.1875 20C36.1875 29.168 28.7305 36.625 19.5625 36.625ZM19.5625 6.875C12.3242 6.875 6.4375 12.7617 6.4375 20C6.4375 27.2383 12.3242 33.125 19.5625 33.125C26.8008 33.125 32.6875 27.2383 32.6875 20C32.6875 12.7617 26.8008 6.875 19.5625 6.875Z" fill="#A3A4A8"/>
</svg>
