<svg width="45" height="45" viewBox="0 0 45 45" fill="none" xmlns="http://www.w3.org/2000/svg">
<path d="M2.24161 20.2583H20.2581V2.24181C20.2581 1.0037 21.2618 0 22.4999 0C23.738 0 24.7417 1.0037 24.7417 2.24181V20.2583H42.7582C43.9963 20.2583 45 21.262 45 22.5001C45 23.7382 43.9963 24.7419 42.7582 24.7419H24.7417V42.7584C24.7417 43.9965 23.738 45.0002 22.4999 45.0002C21.2618 45.0002 20.2581 43.9965 20.2581 42.7584V24.7419H2.24161C1.0035 24.7419 -0.000195419 23.7382 -0.000195419 22.5001C-0.000195419 21.262 1.0035 20.2583 2.24161 20.2583Z" fill="#178AFF"/>
</svg>
