<svg width="45" height="45" viewBox="0 0 45 45" fill="none" xmlns="http://www.w3.org/2000/svg">
<path d="M42.0524 19.3208C41.9213 8.62923 33.2236 0 22.4999 0C11.7761 0 3.07845 8.62923 2.94716 19.3208C1.15231 20.7558 0 22.959 0 25.4346C0 29.756 3.50411 33.2611 7.82602 33.2611C9.71207 33.2611 11.4416 32.5925 12.7926 31.4823L9.10553 17.7215C8.6879 17.6535 8.26256 17.6083 7.82607 17.6083C7.53848 17.6083 7.25578 17.6261 6.97585 17.657C7.91912 9.91556 14.5028 3.9131 22.5001 3.9131C30.4963 3.9131 37.081 9.91551 38.024 17.657C37.7453 17.6263 37.4616 17.6083 37.174 17.6083C36.7376 17.6083 36.3112 17.6536 35.8934 17.7215L32.2074 31.4759C33.2501 32.332 34.518 32.9238 35.9091 33.1502C34.063 35.1335 31.7153 36.6445 29.0594 37.4618L28.7355 37.7852C27.907 36.2622 26.3124 35.2166 24.4567 35.2166C21.7549 35.2166 19.5654 37.406 19.5654 40.1087C19.5654 42.8108 21.7548 45.0002 24.4567 45.0002C26.6744 45.0002 28.5242 43.515 29.1248 41.4929C34.5232 40.1695 39.0455 36.6159 41.6431 31.8532C43.6708 30.4391 45.0002 28.0935 45.0002 25.4344C45.0001 22.9595 43.8467 20.7556 42.0527 19.3206L42.0524 19.3208Z" fill="#178AFF"/>
</svg>
