<svg width="19" height="22" viewBox="0 0 19 22" fill="none" xmlns="http://www.w3.org/2000/svg">
<path d="M17.6012 15.9468C17.7985 15.9411 17.9958 15.9806 18.1846 16.1046C17.4997 15.6649 17.0488 14.8983 17.0488 14.0218V9.13177C17.0488 5.54952 14.4586 2.55915 10.9976 1.82354V1.64879C10.9976 0.735615 10.2592 0 9.34879 0C8.43843 0 7.7 0.738433 7.7 1.64879V1.82354C4.23895 2.55915 1.64879 5.54671 1.64879 9.13177V14.0218C1.64879 14.8983 1.19502 15.6649 0.512958 16.1046C0.704612 15.9806 0.899085 15.9383 1.09638 15.9468C0.49041 15.9496 0 16.4372 0 17.046C0 17.6548 0.49041 18.1452 1.09919 18.1452H17.5956C18.2044 18.1452 18.6948 17.6548 18.6948 17.046C18.6976 16.4428 18.2072 15.9496 17.6012 15.9468ZM9.35161 21.998C10.8708 21.998 12.1024 20.7663 12.1024 19.2472H6.60081C6.60081 20.7663 7.82965 21.998 9.35161 21.998Z" fill="#7B7B7B"/>
</svg>
