<svg width="57" height="18" viewBox="0 0 57 18" fill="none" xmlns="http://www.w3.org/2000/svg">
<path d="M4.47323 0.333412C3.89608 0.982702 3.22274 1.55985 2.40512 2.0889C1.58749 2.56986 0.769866 2.90653 0.00033669 3.12296V5.09487C1.61154 4.61392 2.95822 3.84439 4.04037 2.73819V17.5035H6.01228V0.333412H4.47323ZM15.9769 -0.00325755C14.3417 -0.00325755 13.019 0.45365 12.009 1.39152C10.9509 2.32938 10.3257 3.62796 10.1814 5.28726H12.1293C12.2495 4.13296 12.6343 3.24319 13.3076 2.61795C13.9569 1.99271 14.8467 1.70414 16.0009 1.70414C17.1071 1.70414 17.9969 1.96866 18.6222 2.54581C19.1993 3.07486 19.5119 3.82034 19.5119 4.78225C19.5119 5.74417 19.1993 6.48965 18.5981 7.0187C17.9969 7.5237 17.1312 7.78823 15.9769 7.78823H14.6543V9.32729H16.049C17.2514 9.32729 18.1653 9.59181 18.8386 10.169C19.5119 10.7461 19.8486 11.5397 19.8486 12.5737C19.8486 13.5837 19.4879 14.4254 18.8145 15.0988C18.0691 15.7961 17.0831 16.1569 15.8567 16.1569C14.7745 16.1569 13.8847 15.8442 13.1633 15.2671C12.3216 14.5697 11.8647 13.5357 11.8166 12.189H9.82067C9.96495 14.1128 10.6383 15.5797 11.8647 16.5897C12.8988 17.4073 14.2214 17.8402 15.8567 17.8402C17.6362 17.8402 19.0791 17.3352 20.1853 16.3252C21.2674 15.3392 21.8205 14.0647 21.8205 12.5016C21.8205 11.4916 21.5319 10.6499 20.9548 9.97658C20.4257 9.30324 19.6562 8.82228 18.6462 8.50966C20.5219 7.88442 21.4598 6.58584 21.4598 4.66201C21.4598 3.21915 20.9548 2.0889 19.9688 1.24723C18.9588 0.405555 17.6122 -0.00325755 15.9769 -0.00325755ZM26.1878 5.79226C25.755 5.79226 25.4183 5.93655 25.1538 6.22512C24.8652 6.51369 24.7209 6.85036 24.7209 7.25918C24.7209 7.66799 24.8652 8.02871 25.1538 8.31728C25.4183 8.5818 25.755 8.72609 26.1878 8.72609C26.5726 8.72609 26.9333 8.5818 27.2219 8.31728C27.5104 8.02871 27.6547 7.66799 27.6547 7.25918C27.6547 6.85036 27.5104 6.51369 27.2219 6.22512C26.9333 5.93655 26.5726 5.79226 26.1878 5.79226ZM26.1878 14.5938C25.755 14.5938 25.4183 14.738 25.1538 15.0266C24.8652 15.3152 24.7209 15.6519 24.7209 16.0607C24.7209 16.4695 24.8652 16.8302 25.1538 17.1188C25.4183 17.3833 25.755 17.5276 26.1878 17.5276C26.5726 17.5276 26.9333 17.3833 27.2219 17.1188C27.5104 16.8302 27.6547 16.4695 27.6547 16.0607C27.6547 15.6519 27.5104 15.3152 27.2219 15.0266C26.9333 14.738 26.5726 14.5938 26.1878 14.5938ZM36.5686 -0.00325755C34.5005 -0.00325755 32.9614 0.886511 31.9274 2.71414C31.0135 4.2532 30.5566 6.32131 30.5566 8.91847C30.5566 11.5156 31.0135 13.5837 31.9274 15.1228C32.9614 16.9264 34.5005 17.8402 36.5686 17.8402C38.6126 17.8402 40.1517 16.9264 41.2098 15.1228C42.1236 13.5837 42.5805 11.5156 42.5805 8.91847C42.5805 6.32131 42.1236 4.2532 41.2098 2.71414C40.1517 0.886511 38.6126 -0.00325755 36.5686 -0.00325755ZM36.5686 1.68009C38.1076 1.68009 39.2138 2.49771 39.8872 4.15701C40.3681 5.3113 40.6327 6.89846 40.6327 8.91847C40.6327 10.9144 40.3681 12.5016 39.8872 13.6799C39.2138 15.3152 38.1076 16.1569 36.5686 16.1569C35.0295 16.1569 33.9233 15.3152 33.25 13.6799C32.769 12.5016 32.5285 10.9144 32.5285 8.91847C32.5285 6.89846 32.769 5.3113 33.25 4.15701C33.9233 2.49771 35.0295 1.68009 36.5686 1.68009ZM50.7955 -0.00325755C49.1121 -0.00325755 47.7174 0.549842 46.6352 1.68009C45.529 2.78629 45 4.18106 45 5.88845C45 7.54775 45.4809 8.89443 46.4669 9.92848C47.4769 11.0106 48.7995 11.5637 50.4588 11.5637C51.4688 11.5637 52.3586 11.2992 53.1281 10.8182C53.9217 10.3132 54.5469 9.61586 54.9798 8.75014H55.076C55.076 9.03871 55.1 9.25514 55.1 9.37538C55.1 11.2992 54.7153 12.9104 53.9698 14.1849C53.1762 15.5076 52.1181 16.1809 50.7955 16.1809C48.7755 16.1809 47.5971 15.1949 47.2364 13.2471H45.2885C45.7454 16.3011 47.5731 17.8402 50.7714 17.8402C52.6952 17.8402 54.2343 16.9264 55.3886 15.1469C56.4467 13.4154 56.9998 11.203 56.9998 8.46157C56.9998 5.81631 56.4948 3.7482 55.4848 2.30533C54.4267 0.766272 52.8636 -0.00325755 50.7955 -0.00325755ZM50.8436 1.65604C52.0219 1.65604 52.9838 2.06485 53.7053 2.88248C54.4026 3.65201 54.7634 4.63797 54.7634 5.84036C54.7634 7.0187 54.3786 8.00466 53.6572 8.77419C52.8876 9.54372 51.9498 9.92848 50.8436 9.92848C49.6412 9.92848 48.7033 9.54372 48.0059 8.79824C47.2845 8.0768 46.9478 7.09084 46.9478 5.88845C46.9478 4.63797 47.2845 3.62796 48.0059 2.83438C48.7274 2.04081 49.6652 1.65604 50.8436 1.65604Z" fill="#7B7B7B"/>
</svg>
