<svg width="42" height="48" viewBox="0 0 42 48" fill="none" xmlns="http://www.w3.org/2000/svg">
<path d="M20.7996 9.6C19.1727 9.6 17.5618 9.91926 16.0587 10.5395C14.5557 11.1598 13.19 12.069 12.0396 13.2151C10.8892 14.3613 9.9767 15.7219 9.35411 17.2194C8.73153 18.717 8.41109 20.322 8.41109 21.9429V31.104C8.41328 32.2466 8.05185 33.3606 7.37872 34.2857L5.42408 37.0286H36.1751L34.2205 34.2857C33.5474 33.3606 33.1859 32.2466 33.1881 31.104V21.9429C33.1881 20.322 32.8677 18.717 32.2451 17.2194C31.6225 15.7219 30.71 14.3613 29.5596 13.2151C28.4092 12.069 27.0435 11.1598 25.5405 10.5395C24.0374 9.91926 22.4265 9.6 20.7996 9.6ZM20.7996 5.48571C25.1805 5.48571 29.3819 7.21959 32.4796 10.3059C35.5773 13.3922 37.3176 17.5782 37.3176 21.9429V31.104C37.3195 31.3898 37.4109 31.6679 37.5792 31.8994L41.0892 36.8091C41.3825 37.2195 41.5566 37.7023 41.5926 38.2047C41.6286 38.7072 41.525 39.2097 41.2933 39.6574C41.0615 40.1051 40.7105 40.4805 40.2787 40.7425C39.847 41.0045 39.3511 41.1431 38.8455 41.1429H2.75367C2.24811 41.1431 1.75225 41.0045 1.32048 40.7425C0.88871 40.4805 0.537697 40.1051 0.305931 39.6574C0.0741692 39.2097 -0.0293961 38.7072 0.00659561 38.2047C0.0425873 37.7023 0.216747 37.2195 0.509975 36.8091L4.02005 31.8994C4.1883 31.6679 4.27974 31.3898 4.28159 31.104V21.9429C4.28159 17.5782 6.02188 13.3922 9.11961 10.3059C12.2173 7.21959 16.4188 5.48571 20.7996 5.48571ZM19.4231 4.11429H22.1761C22.7237 4.11419 23.2487 3.89742 23.6359 3.51164C24.023 3.12586 24.2405 2.60267 24.2405 2.05714C24.2405 1.51162 24.023 0.988425 23.6359 0.602646C23.2487 0.216867 22.7237 9.2331e-05 22.1761 0H19.4231C18.8756 9.2331e-05 18.3505 0.216867 17.9633 0.602646C17.5762 0.988425 17.3587 1.51162 17.3587 2.05714C17.3587 2.60267 17.5762 3.12586 17.9633 3.51164C18.3505 3.89742 18.8756 4.11419 19.4231 4.11429ZM15.9819 48H24.2409C24.7885 48 25.3137 47.7833 25.7009 47.3975C26.0881 47.0117 26.3056 46.4884 26.3056 45.9429C26.3056 45.3973 26.0881 44.874 25.7009 44.4882C25.3137 44.1024 24.7885 43.8857 24.2409 43.8857H15.9819C15.4342 43.8857 14.9091 44.1024 14.5219 44.4882C14.1346 44.874 13.9171 45.3973 13.9171 45.9429C13.9171 46.4884 14.1346 47.0117 14.5219 47.3975C14.9091 47.7833 15.4342 48 15.9819 48Z" fill="#178AFF"/>
</svg>
