<svg width="44" height="42" viewBox="0 0 44 42" fill="none" xmlns="http://www.w3.org/2000/svg">
<path d="M41.2741 39.1216C39.366 40.9392 36.8219 41.8047 33.9143 41.9778C27.0996 42.324 18.286 38.6023 10.9262 31.5916C3.65727 24.5808 -0.340656 16.1853 0.0227955 9.78042C0.2045 6.92417 1.204 4.50073 3.11212 2.68312C4.56588 1.29827 6.47395 0.346213 8.65466 0C9.56331 0.173086 10.2902 0.692426 10.8354 1.55794V1.64448L14.8333 8.65524C15.6511 10.1266 15.1059 12.0307 13.5612 12.8097L9.74502 15.7525C11.0171 19.5608 12.9252 22.8498 16.4688 26.3119C20.0124 29.6874 23.4652 31.505 27.4631 32.7168L30.5524 28.995C31.3702 27.5236 33.3691 26.9177 34.9137 27.6967L42.3645 31.505C43.3639 32.0243 43.9091 32.8899 44 33.9285C43.6365 36.0057 42.7279 37.7368 41.2741 39.1216Z" fill="#8BA6CC"/>
</svg>
