<svg width="46" height="48" viewBox="0 0 46 48" fill="none" xmlns="http://www.w3.org/2000/svg">
<path fill-rule="evenodd" clip-rule="evenodd" d="M0.469705 6.1624C0.611477 3.0522 3.10427 0.559132 6.21462 0.420553C18.7691 -0.138801 27.5664 -0.139858 39.8449 0.415452C42.9549 0.556108 45.4447 3.05202 45.5796 6.16232C46.1544 19.4055 46.1271 28.619 45.5748 41.7113C45.4417 44.8666 42.8911 47.3859 39.7346 47.4842C27.5132 47.8649 18.7611 47.8829 6.27551 47.4875C3.13935 47.3881 0.599174 44.896 0.450564 41.7618C0.430415 41.3369 0.41096 40.9161 0.392196 40.4991L3.22285 39.842C4.14108 39.6288 4.79107 38.8106 4.79107 37.868V32.403C4.79107 31.4604 4.14108 30.6422 3.22285 30.429L0.0455943 29.6915C-0.0201388 25.8394 -0.0141565 22.1383 0.0593981 18.2853L3.22285 17.5509C4.14108 17.3378 4.79107 16.5196 4.79107 15.577V10.112C4.79107 9.16932 4.14108 8.35116 3.22285 8.138L0.410719 7.48518C0.429741 7.04857 0.449405 6.60775 0.469705 6.1624Z" fill="#8BA6CC"/>
</svg>
